:SAMPLES-PER-SECOND 30
:FULLY-SPECIFIED
:DEGREES
769
root  4.49849 40.9588 -1.78634 172.402 -84.8854 -175.708
RightUpLeg  1.2858 -7.42491 -5.40264
RightLeg  2.87915 -2.91128 2.69157
RightFoot  0.350169 -0.174221 1.72589
RightToes  -4.65663e-010 0 -3.6325e-017
Spine  5.13661 -5.86731 -11.0229
Spine1  7.47763 -10.44 15.7905
HEad  4.37756 25.2161 -5.01186
LeftShoulder1  9.92125 -15.1041 -46.5194
LeftArm  9.49021 -9.4367 -7.43757
LeftForeArm  21.1189 -34.0071 -6.35529
LeftHand  -0.244104 0.0205437 5.32207
RightShoulder  5.68584 9.68588 37.0814
RightArm  11.1432 -16.5058 23.3829
RightForeArm  -8.99671 52.1178 15.2085
RightHand  -0.665099 2.47537 -10.0127
LeftUpLeg  2.08944 7.18385 5.98411
LeftLeg  4.6562 11.946 -3.14788
LeftFoot  -2.65728 0.137066 -1.5927
LeftToes  4.18335e-011 1.59304e-011 3.38507e-012
770
root  4.32747 40.971 -1.81253 172.193 -84.7475 -174.784
RightUpLeg  0.885533 -7.33301 -5.22944
RightLeg  2.64049 -2.93181 2.76557
RightFoot  0.297173 -0.172077 1.7297
RightToes  -4.65663e-010 0 -3.6325e-017
Spine  6.05237 -6.60171 -13.1943
Spine1  5.83632 -11.2986 16.6662
HEad  4.29118 26.2073 -3.73477
LeftShoulder1  9.19197 -13.2172 -47.9833
LeftArm  5.55439 2.04803 -7.91471
LeftForeArm  25.5223 -39.0598 -7.48571
LeftHand  -0.244104 0.0205437 5.32207
RightShoulder  4.30316 7.20199 34.1982
RightArm  2.26441 -25.2779 26.1015
RightForeArm  -8.55533 57.2255 18.5205
RightHand  -0.560957 1.46806 -9.63697
LeftUpLeg  1.7153 7.15008 6.05405
LeftLeg  4.42952 12.1298 -3.22296
LeftFoot  -2.69699 0.134015 -1.5505
LeftToes  4.18335e-011 1.59304e-011 3.38507e-012
771
root  4.15014 40.9836 -1.83451 171.533 -84.7597 -173.569
RightUpLeg  0.695987 -7.24618 -5.07708
RightLeg  2.40034 -3.06549 2.81895
RightFoot  0.233359 -0.172079 1.76308
RightToes  -4.65663e-010 0 -3.6325e-017
Spine  7.31708 -7.52912 -15.5108
Spine1  3.86377 -12.3471 17.5299
HEad  4.75854 27.7783 -2.29041
LeftShoulder1  7.85629 -10.9066 -47.5553
LeftArm  -0.350017 14.7349 -10.2132
LeftForeArm  29.0794 -44.4054 -8.96136
LeftHand  -0.244104 0.0205437 5.32207
RightShoulder  2.72596 4.04107 30.1147
RightArm  -6.00183 -32.6582 29.0008
RightForeArm  -7.06885 63.1319 23.9412
RightHand  -0.416246 0.00458915 -8.99342
LeftUpLeg  1.5152 7.16346 6.17175
LeftLeg  4.19305 12.0935 -3.33308
LeftFoot  -2.77644 0.13524 -1.57473
LeftToes  4.18335e-011 1.59304e-011 3.38507e-012
772
root  3.9953 40.9917 -1.84735 170.741 -84.7757 -172.452
RightUpLeg  0.668219 -7.17258 -4.95858
RightLeg  2.26378 -3.16838 2.84318
RightFoot  0.151369 -0.168833 1.73761
RightToes  -4.65663e-010 0 -3.6325e-017
Spine  8.96955 -8.43534 -17.7275
Spine1  1.6041 -13.3436 18.1869
HEad  5.88378 29.6145 -0.594691
LeftShoulder1  5.97708 -8.02588 -45.098
LeftArm  -7.7419 27.5718 -15.0818
LeftForeArm  30.0247 -49.2067 -10.7213
LeftHand  -0.244104 0.0205437 5.32207
RightShoulder  1.34192 0.706319 25.7602
RightArm  -12.0772 -37.6501 29.8305
RightForeArm  -1.94075 69.2303 33.026
RightHand  -0.295426 -1.39999 -8.48808
LeftUpLeg  1.50676 7.21966 6.3053
LeftLeg  4.01674 11.9832 -3.43677
LeftFoot  -2.87277 0.137687 -1.6179
LeftToes  4.18335e-011 1.59304e-011 3.38507e-012
773
root  3.88453 40.9937 -1.83283 170.516 -84.4943 -172.033
RightUpLeg  0.572274 -7.08714 -4.86926
RightLeg  2.28149 -2.99341 2.82568
RightFoot  0.101373 -0.161983 1.64306
RightToes  -4.65663e-010 0 -3.6325e-017
Spine  10.5938 -8.97544 -19.429
Spine1  -0.760412 -13.8722 18.507
HEad  7.55879 31.033 1.33378
LeftShoulder1  3.75395 -4.43544 -40.7619
LeftArm  -15.4647 38.9939 -22.5146
LeftForeArm  29.826 -52.8263 -12.3951
LeftHand  -0.244104 0.0205437 5.32207
RightShoulder  0.330834 -2.31613 21.6191
RightArm  -15.6995 -40.0709 27.3507
RightForeArm  11.893 74.7956 49.8415
RightHand  -0.260547 -2.08133 -8.88759
LeftUpLeg  1.55256 7.2605 6.36699
LeftLeg  3.95201 12.1893 -3.46449
LeftFoot  -2.96586 0.136119 -1.5986
LeftToes  4.18335e-011 1.59304e-011 3.38507e-012
774
root  3.80485 40.9933 -1.77607 171.309 -83.7087 -172.643
RightUpLeg  0.274806 -6.97474 -4.82014
RightLeg  2.42153 -2.3658 2.75407
RightFoot  0.118541 -0.15925 1.59357
RightToes  -4.65663e-010 0 -3.6325e-017
Spine  11.6015 -8.95809 -20.1127
Spine1  -2.96127 -13.5866 18.1269
HEad  9.5746 31.3372 3.42757
LeftShoulder1  1.60452 -0.356495 -35.0174
LeftArm  -22.2588 48.277 -31.3693
LeftForeArm  30.3507 -55.4437 -13.7605
LeftHand  -0.244104 0.0205437 5.32207
RightShoulder  -0.323568 -4.83384 17.5854
RightArm  -17.4271 -40.588 21.9455
RightForeArm  42.6406 78.1253 82.394
RightHand  -0.287677 -2.19596 -10.1833
LeftUpLeg  1.59229 7.27277 6.3145
LeftLeg  3.95759 12.9582 -3.44599
LeftFoot  -3.07668 0.129236 -1.49658
LeftToes  4.18335e-011 1.59304e-011 3.38507e-012
775
root  3.72656 40.9921 -1.67968 172.672 -82.5197 -173.815
RightUpLeg  -0.120473 -6.86536 -4.83635
RightLeg  2.56986 -1.35135 2.638
RightFoot  0.196884 -0.170481 1.69979
RightToes  -4.65663e-010 0 -3.6325e-017
Spine  11.6541 -8.50174 -19.3985
Spine1  -4.58594 -12.5104 16.4403
HEad  11.4909 30.3533 5.44702
LeftShoulder1  0.0338463 3.43422 -28.963
LeftArm  -26.9716 55.5212 -39.083
LeftForeArm  31.2191 -57.9154 -15.2191
LeftHand  -0.244104 0.0205437 5.32207
RightShoulder  -0.692691 -6.89388 13.3872
RightArm  -18.0741 -39.6938 14.8866
RightForeArm  80.7339 76.299 121.111
RightHand  -0.335348 -2.06874 -11.5022
LeftUpLeg  1.69411 7.29508 6.18436
LeftLeg  3.93565 14.1366 -3.48681
LeftFoot  -3.23289 0.120323 -1.36292
LeftToes  4.18335e-011 1.59304e-011 3.38507e-012
776
root  3.64924 40.9915 -1.56076 173.999 -81.2915 -175.03
RightUpLeg  -0.411923 -6.80984 -4.95137
RightLeg  2.64279 -0.233799 2.51084
RightFoot  0.308134 -0.194561 1.92687
RightToes  -4.65663e-010 0 -3.6325e-017
Spine  10.855 -7.87414 -17.2728
Spine1  -5.20069 -10.9931 13.0511
HEad  12.6938 28.557 7.12305
LeftShoulder1  -0.781076 6.09606 -24.0123
LeftArm  -28.2453 60.7656 -42.5208
LeftForeArm  32.1261 -61.1554 -17.556
LeftHand  -0.244104 0.0205437 5.32207
RightShoulder  -0.833296 -8.58359 8.92728
RightArm  -19.2257 -37.1273 7.89293
RightForeArm  103.43 70.8217 143.128
RightHand  -0.386733 -1.70908 -12.0567
LeftUpLeg  1.92963 7.33208 6.00383
LeftLeg  3.81687 15.3286 -3.62163
LeftFoot  -3.39846 0.111837 -1.23579
LeftToes  4.18335e-011 1.59304e-011 3.38507e-012
777
root  3.60791 40.9908 -1.43415 174.848 -80.3703 -175.956
RightUpLeg  -0.491802 -6.83695 -5.14905
RightLeg  2.67979 0.70179 2.4097
RightFoot  0.425523 -0.216694 2.13009
RightToes  -4.65663e-010 0 -3.6325e-017
Spine  9.70734 -7.21945 -14.0302
Spine1  -4.82909 -9.31863 8.23826
HEad  12.9253 26.4377 8.52458
LeftShoulder1  -1.06348 7.41971 -20.8408
LeftArm  -24.8413 63.7346 -39.8732
LeftForeArm  34.9117 -65.5496 -21.6157
LeftHand  -0.244104 0.0205437 5.32207
RightShoulder  -0.77129 -9.78344 4.28719
RightArm  -22.3713 -32.6933 2.35252
RightForeArm  113.886 65.1714 153.078
RightHand  -0.421749 -1.36352 -12.0659
LeftUpLeg  2.25091 7.34427 5.79718
LeftLeg  3.70525 16.2257 -3.75575
LeftFoot  -3.53566 0.103607 -1.1125
LeftToes  4.18335e-011 1.59304e-011 3.38507e-012
778
root  3.62951 40.9863 -1.30827 175.207 -79.8782 -176.592
RightUpLeg  -0.411538 -6.942 -5.39756
RightLeg  2.77979 1.34 2.3605
RightFoot  0.539321 -0.22744 2.22012
RightToes  -4.65663e-010 0 -3.6325e-017
Spine  8.79753 -6.49844 -10.0859
Spine1  -4.10637 -7.50915 2.64206
HEad  12.5149 23.8927 9.97656
LeftShoulder1  -1.06801 7.71818 -18.9203
LeftArm  -17.4454 64.0806 -32.3349
LeftForeArm  41.9319 -70.7084 -28.5893
LeftHand  -0.244104 0.0205437 5.32207
RightShoulder  -0.559174 -10.2049 -0.168973
RightArm  -26.8566 -26.6462 -1.71252
RightForeArm  116.493 61.16 157.349
RightHand  -0.483432 -0.93501 -12.528
LeftUpLeg  2.56446 7.31424 5.5826
LeftLeg  3.69573 16.7496 -3.81579
LeftFoot  -3.61658 0.0950095 -0.983369
LeftToes  4.18335e-011 1.59304e-011 3.38507e-012
779
root  3.70639 40.981 -1.19082 175.354 -79.7752 -177.089
RightUpLeg  -0.321316 -7.10071 -5.67443
RightLeg  2.98078 1.67643 2.3668
RightFoot  0.656189 -0.230462 2.23524
RightToes  -4.65663e-010 0 -3.6325e-017
Spine  8.31136 -5.65149 -5.79234
Spine1  -3.59649 -5.52704 -3.2327
HEad  11.8683 20.5785 11.4906
LeftShoulder1  -0.906273 7.27211 -17.5615
LeftArm  -9.229 61.591 -23.3588
LeftForeArm  54.7107 -75.6971 -40.8951
LeftHand  -0.244104 0.0205437 5.32207
RightShoulder  -0.319126 -9.87222 -3.91951
RightArm  -30.4463 -19.0278 -4.84237
RightForeArm  115.66 59.4307 158.71
RightHand  -0.618557 -0.0417203 -13.473
LeftUpLeg  2.77641 7.24971 5.36624
LeftLeg  3.7438 16.9546 -3.8356
LeftFoot  -3.61717 0.0863665 -0.853367
LeftToes  4.18335e-011 1.59304e-011 3.38507e-012
780
root  3.81903 40.9782 -1.09318 175.608 -80.0443 -177.614
RightUpLeg  -0.315448 -7.28869 -5.96534
RightLeg  3.20764 1.67419 2.40845
RightFoot  0.788217 -0.232574 2.24303
RightToes  -4.65663e-010 0 -3.6325e-017
Spine  7.94852 -4.71448 -1.52628
Spine1  -3.18128 -3.47083 -8.885
HEad  11.036 16.659 12.6076
LeftShoulder1  -0.606174 6.11217 -16.8264
LeftArm  -3.52768 56.5463 -15.7663
LeftForeArm  75.9603 -79.3512 -62.7734
LeftHand  -0.244104 0.0205437 5.32207
RightShoulder  -0.138042 -9.17383 -6.83475
RightArm  -31.8458 -9.77213 -6.79767
RightForeArm  115.885 60.0231 158.231
RightHand  -0.64368 0.187516 -13.4308
LeftUpLeg  2.82438 7.14327 5.13549
LeftLeg  3.71972 16.872 -3.87456
LeftFoot  -3.50165 0.0774951 -0.719639
LeftToes  4.18335e-011 1.59304e-011 3.38507e-012
